<svg width="30" height="29" viewBox="0 0 30 29" fill="none" xmlns="http://www.w3.org/2000/svg">
<path d="M15 0.833344C13.1396 0.833344 11.2974 1.19978 9.57865 1.91172C7.85987 2.62366 6.29815 3.66717 4.98265 4.98266C2.32588 7.63943 0.833328 11.2428 0.833328 15C0.833328 21.2617 4.89916 26.5742 10.5233 28.4583C11.2317 28.5717 11.4583 28.1325 11.4583 27.75V25.3558C7.53416 26.2058 6.69833 23.4575 6.69833 23.4575C6.04666 21.8142 5.12583 21.375 5.12583 21.375C3.83666 20.4967 5.225 20.525 5.225 20.525C6.64166 20.6242 7.3925 21.9842 7.3925 21.9842C8.625 24.1375 10.7075 23.5 11.515 23.16C11.6425 22.2392 12.0108 21.6158 12.4075 21.2617C9.2625 20.9075 5.96166 19.6892 5.96166 14.2917C5.96166 12.7192 6.5 11.4583 7.42083 10.4525C7.27916 10.0983 6.78333 8.62501 7.5625 6.71251C7.5625 6.71251 8.7525 6.33001 11.4583 8.15751C12.5775 7.84584 13.7958 7.69001 15 7.69001C16.2042 7.69001 17.4225 7.84584 18.5417 8.15751C21.2475 6.33001 22.4375 6.71251 22.4375 6.71251C23.2167 8.62501 22.7208 10.0983 22.5792 10.4525C23.5 11.4583 24.0383 12.7192 24.0383 14.2917C24.0383 19.7033 20.7233 20.8933 17.5642 21.2475C18.0742 21.6867 18.5417 22.5508 18.5417 23.8683V27.75C18.5417 28.1325 18.7683 28.5858 19.4908 28.4583C25.115 26.56 29.1667 21.2617 29.1667 15C29.1667 13.1396 28.8002 11.2974 28.0883 9.57866C27.3763 7.85988 26.3328 6.29816 25.0173 4.98266C23.7018 3.66717 22.1401 2.62366 20.4213 1.91172C18.7026 1.19978 16.8604 0.833344 15 0.833344Z" fill="black"/>
</svg>
