<svg width="60" height="53" viewBox="0 0 60 53" fill="none" xmlns="http://www.w3.org/2000/svg">
<g clip-path="url(#clip0_3_17)">
<path d="M49.332 17.1608C48.6934 16.9435 48.0495 16.7422 47.4007 16.5571C47.5097 16.1154 47.61 15.6791 47.6991 15.2505C49.1611 8.21147 48.2053 2.54071 44.9407 0.673617C41.8106 -1.11629 36.6916 0.750095 31.5218 5.21256C31.0123 5.65314 30.5141 6.10642 30.0277 6.57196C29.702 6.26239 29.3706 5.95883 29.0337 5.66143C23.6154 0.890034 18.1845 -1.12094 14.9234 0.75149C11.7961 2.54698 10.8701 7.8779 12.1863 14.5489C12.3173 15.2096 12.4651 15.8669 12.6298 16.5202C11.861 16.7368 11.1192 16.9674 10.4093 17.2129C4.0568 19.4096 0 22.852 0 26.4228C0 30.1107 4.35516 33.8098 10.9716 36.0527C11.508 36.2338 12.0488 36.4016 12.5937 36.556C12.4167 37.2596 12.2596 37.9679 12.1226 38.6802C10.8677 45.2355 11.8477 50.4404 14.9665 52.2245C18.1877 54.0669 23.5943 52.1734 28.8586 47.6091C29.2855 47.238 29.7029 46.8564 30.1106 46.4647C30.6374 46.9688 31.1782 47.4582 31.7325 47.9324C36.832 52.2845 41.8683 54.0418 44.9841 52.2528C48.2023 50.4051 49.2483 44.8136 47.8903 38.0107C47.7833 37.4778 47.6634 36.9475 47.5305 36.4203C47.9102 36.3087 48.2829 36.1938 48.6462 36.0744C55.5246 33.8142 60 30.16 60 26.4228C60 22.839 55.8122 19.3733 49.332 17.1608ZM47.8402 33.6615C47.512 33.7691 47.1755 33.873 46.8323 33.9741C46.073 31.5898 45.0483 29.0547 43.7941 26.4351C44.9909 23.8781 45.9762 21.3752 46.7142 19.0065C47.328 19.1827 47.9236 19.3684 48.4978 19.5644C54.0502 21.4603 57.4369 24.263 57.4369 26.4228C57.4369 28.7232 53.7792 31.7095 47.8402 33.6615ZM45.3759 38.5045C45.9764 41.5124 46.062 44.2322 45.6642 46.3585C45.307 48.269 44.5884 49.5426 43.6997 50.0529C41.809 51.1385 37.7653 49.7274 33.4043 46.0054C32.8888 45.5645 32.3857 45.1095 31.8956 44.6408C33.5864 42.807 35.276 40.6751 36.9251 38.3073C39.8257 38.0521 42.566 37.6346 45.0511 37.0649C45.1708 37.5421 45.2791 38.0221 45.3759 38.5045ZM20.4553 49.8653C18.608 50.5122 17.1366 50.5308 16.2471 50.0222C14.3545 48.9397 13.5677 44.7603 14.6409 39.1544C14.7685 38.492 14.9146 37.8332 15.079 37.1788C17.5366 37.7181 20.257 38.1058 23.1645 38.3396C24.8248 40.6565 26.5631 42.7861 28.3151 44.6508C27.9428 45.0081 27.5616 45.3563 27.172 45.695C24.844 47.7132 22.5112 49.1451 20.4553 49.8653ZM11.8008 33.6473C8.87508 32.6554 6.45891 31.3664 4.80281 29.9598C3.31453 28.696 2.56336 27.4409 2.56336 26.4228C2.56336 24.2558 5.82047 21.4919 11.253 19.6134C11.9123 19.3856 12.6023 19.1706 13.3184 18.9688C14.0693 21.391 15.0541 23.9236 16.2427 26.4846C15.0387 29.0835 14.0398 31.6565 13.2816 34.1073C12.7842 33.966 12.2905 33.8126 11.8008 33.6473ZM14.7019 14.0605C13.5743 8.34513 14.3231 4.03377 16.2077 2.95169C18.2149 1.79917 22.6535 3.4424 27.3319 7.56246C27.6369 7.83173 27.9371 8.10646 28.2321 8.38651C26.4888 10.2431 24.7664 12.3569 23.1209 14.66C20.299 14.9195 17.5978 15.336 15.1144 15.8941C14.9614 15.2866 14.8238 14.675 14.7019 14.0605ZM40.5832 20.3991C39.9966 19.3942 39.3883 18.4019 38.7586 17.423C40.673 17.6631 42.5072 17.9818 44.2296 18.3714C43.7126 20.0154 43.068 21.7339 42.3094 23.4959C41.7548 22.4524 41.1793 21.4199 40.5832 20.3991ZM30.0288 10.2034C31.211 11.4738 32.3951 12.892 33.5597 14.4308C31.1972 14.3202 28.8307 14.3197 26.4682 14.4294C27.634 12.9048 28.8281 11.4884 30.0288 10.2034ZM19.4067 20.4166C18.8181 21.4291 18.2533 22.4552 17.7129 23.4938C16.9666 21.7381 16.328 20.0116 15.8065 18.3445C17.5184 17.9646 19.3439 17.6541 21.2461 17.4184C20.6094 18.4033 19.9961 19.4031 19.4067 20.4166ZM21.3007 35.6081C19.3355 35.3905 17.4825 35.096 15.7711 34.7264C16.3008 33.0294 16.9535 31.2662 17.7159 29.4728C18.2585 30.5123 18.8256 31.539 19.4168 32.552C20.0248 33.5934 20.6543 34.6134 21.3007 35.6081ZM30.0996 42.8212C28.8846 41.5213 27.6729 40.0831 26.4895 38.5363C27.6384 38.5809 28.8096 38.6037 30 38.6037C31.223 38.6037 32.4319 38.5765 33.6218 38.524C32.4534 40.0986 31.2738 41.5389 30.0996 42.8212ZM42.3335 29.3813C43.1355 31.1944 43.8115 32.9483 44.3482 34.6162C42.6087 35.0099 40.7304 35.327 38.7513 35.5625C39.3855 34.5654 39.9996 33.5559 40.5933 32.5345C41.1969 31.4964 41.7771 30.445 42.3335 29.3813ZM38.373 31.2644C37.4642 32.8303 36.5042 34.3665 35.4947 35.8705C33.666 35.999 31.8333 36.0628 30 36.0618C28.1327 36.0618 26.3166 36.0042 24.5677 35.8917C23.5318 34.3911 22.5535 32.8522 21.6349 31.2783C20.7207 29.7128 19.8669 28.1133 19.0751 26.4835C19.8649 24.8532 20.7163 23.253 21.6274 21.6863L21.6272 21.6865C22.538 20.1193 23.5084 18.587 24.5365 17.0929C26.3208 16.959 28.1505 16.8893 29.9998 16.8893C31.8574 16.8893 33.6898 16.9597 35.4736 17.0946C36.4913 18.5864 37.4555 20.1134 38.3646 21.6728C39.2788 23.2361 40.1414 24.8285 40.9512 26.4474C40.1497 28.0829 39.2898 29.6896 38.373 31.2644ZM43.6605 2.87591C45.6696 4.02517 46.451 8.65965 45.1887 14.7372C45.108 15.125 45.0176 15.5199 44.9191 15.9204C42.4296 15.3504 39.7266 14.9267 36.8965 14.6633C35.2479 12.3348 33.5395 10.2178 31.8246 8.38512C32.2741 7.95542 32.7342 7.53687 33.2046 7.12985C37.6343 3.30665 41.7743 1.79708 43.6605 2.87591ZM30 21.1088C32.959 21.1088 35.3578 23.488 35.3578 26.4228C35.3578 29.3575 32.959 31.7367 30 31.7367C27.041 31.7367 24.6422 29.3575 24.6422 26.4228C24.6422 23.488 27.041 21.1088 30 21.1088Z" fill="#00D8FF"/>
</g>
<defs>
<clipPath id="clip0_3_17">
<rect width="60" height="53" fill="white"/>
</clipPath>
</defs>
</svg>
